<svg width="100" height="92" viewBox="0 0 100 92" fill="none" xmlns="http://www.w3.org/2000/svg">
<rect width="24" height="17" fill="#254087"/>
<rect x="16.9417" y="30.4951" width="54.2135" height="16.9417" transform="rotate(90 16.9417 30.4951)" fill="#254087"/>
<path fill-rule="evenodd" clip-rule="evenodd" d="M70.8949 91.4852H99.1098L56.5977 28.8009L37.2717 41.9077L70.8949 91.4852Z" fill="#254087"/>
<path fill-rule="evenodd" clip-rule="evenodd" d="M71.785 1.90735e-05H99.9999L59.9861 59.0006L40.6601 45.8938L71.785 1.90735e-05Z" fill="#254087"/>
<path fill-rule="evenodd" clip-rule="evenodd" d="M22.0242 0.102899V0.815523C21.4933 0.829407 21.1771 0.846249 21.1771 0.846249V16.6274C21.8273 16.8305 22.4287 16.9619 22.9904 17.0575C23.6781 17.1041 24.3431 17.1861 24.9952 17.3266C26.2563 17.4936 27.3193 17.7353 28.3547 18.726C28.704 18.9542 29.0545 19.212 29.4078 19.5034C35.5155 24.5408 36.0794 33.0629 35.9924 40H36V51H35.9985C36.0364 57.4612 35.3763 65.0332 29.8945 70.4966C27.8571 72.5271 25.3229 72.91 22.7623 72.9822C22.2666 73.0738 21.7401 73.1958 21.1771 73.3716V91.3824C21.1771 91.3824 26.4474 91.9203 30.4951 90.5363C34.9034 89.0289 38.3184 87.2511 42.3543 83.7672C48.9028 78.1142 51.3222 70.2259 52.1739 62.4414C53.1436 57.0182 53.3663 51.5384 53.3663 46.6402C53.3663 45.4577 53.3864 44.1984 53.4074 42.8796C53.5816 31.9309 53.8209 16.8853 43.2013 7.71809C39.1655 4.2342 35.7505 2.45641 31.3421 0.949029C27.2944 -0.435042 22.0242 0.102899 22.0242 0.102899Z" fill="#254087"/>
<rect y="72.8494" width="25.4126" height="18.6359" fill="#254087"/>
</svg>
