<svg width="144" height="144" viewBox="0 0 144 144" fill="none" xmlns="http://www.w3.org/2000/svg">
<rect width="144" height="144" rx="15" fill="#254087"/>
<rect x="27" y="31" width="21.6" height="15.3" fill="white"/>
<rect x="42.2475" y="58.4456" width="48.7921" height="15.2475" transform="rotate(90 42.2475 58.4456)" fill="white"/>
<path fill-rule="evenodd" clip-rule="evenodd" d="M90.8055 113.337L116.199 113.337L77.938 56.9208L60.5446 68.7169L90.8055 113.337Z" fill="white"/>
<path fill-rule="evenodd" clip-rule="evenodd" d="M91.6065 31H117L80.9875 84.1006L63.5941 72.3045L91.6065 31Z" fill="white"/>
<path fill-rule="evenodd" clip-rule="evenodd" d="M46.8218 31.0926V31.734C46.344 31.7464 46.0594 31.7616 46.0594 31.7616V45.9646C46.6446 46.1474 47.1859 46.2658 47.6914 46.3518C48.3103 46.3937 48.9088 46.4675 49.4956 46.5939C50.6306 46.7442 51.5874 46.9618 52.5193 47.8534C52.8336 48.0587 53.1491 48.2908 53.4671 48.5531C58.9639 53.0867 59.4714 60.7566 59.3931 67H59.4V76.9H59.3987C59.4328 82.715 58.8387 89.5299 53.905 94.4469C52.0714 96.2744 49.7907 96.619 47.4861 96.684C47.04 96.7664 46.5661 96.8763 46.0594 97.0345V113.244C46.0594 113.244 50.8026 113.728 54.4456 112.483C58.4131 111.126 61.4866 109.526 65.1188 106.39C71.0126 101.303 73.19 94.2033 73.9565 87.1973C74.8293 82.3164 75.0297 77.3845 75.0297 72.9762C75.0297 71.912 75.0477 70.7787 75.0666 69.5919V69.5918V69.5918V69.5917C75.2234 59.7378 75.4388 46.1968 65.8812 37.9463C62.249 34.8108 59.1754 33.2108 55.2079 31.8541C51.565 30.6085 46.8218 31.0926 46.8218 31.0926Z" fill="white"/>
<rect x="27" y="96.5645" width="22.8713" height="16.7723" fill="white"/>
</svg>
