<svg width="129" height="132" viewBox="0 0 129 132" fill="none" xmlns="http://www.w3.org/2000/svg">
<rect x="4.5" y="26.5" width="101" height="101" stroke="#254087" stroke-width="9"/>
<path fill-rule="evenodd" clip-rule="evenodd" d="M28 9H120V101H110V110H120H129V101V9V0H120H28H19V9V22H28V9Z" fill="#254087"/>
<rect x="19" y="44" width="17.3143" height="12.2643" fill="#254087"/>
<rect x="31.2222" y="66" width="39.1111" height="12.2222" transform="rotate(90 31.2222 66)" fill="#254087"/>
<path fill-rule="evenodd" clip-rule="evenodd" d="M70.1455 110H90.5006L59.8311 64.7778L45.8888 74.2334L70.1455 110Z" fill="#254087"/>
<path fill-rule="evenodd" clip-rule="evenodd" d="M70.7877 44H91.1427L62.2756 86.5646L48.3333 77.1091L70.7877 44Z" fill="#254087"/>
<path fill-rule="evenodd" clip-rule="evenodd" d="M34.8889 44.0742V44.5883C34.5058 44.5983 34.2778 44.6105 34.2778 44.6105V55.9955C34.7468 56.142 35.1807 56.2368 35.586 56.3058C36.082 56.3394 36.5618 56.3986 37.0322 56.4999C37.942 56.6204 38.7089 56.7948 39.4559 57.5095C39.7079 57.6741 39.9607 57.8601 40.2156 58.0703C44.6219 61.7044 45.0287 67.8525 44.9659 72.8571H44.9714V80.7928H44.9703C44.9977 85.4541 44.5215 90.9168 40.5667 94.8582C39.0969 96.3231 37.2687 96.5993 35.4214 96.6514C35.0637 96.7175 34.6839 96.8055 34.2778 96.9323V109.926C34.2778 109.926 38.0799 110.314 41 109.315C44.1803 108.228 46.644 106.945 49.5555 104.432C54.2799 100.354 56.0253 94.6628 56.6398 89.0467C57.3393 85.1343 57.5 81.1811 57.5 77.6475C57.5 76.7945 57.5144 75.8859 57.5295 74.9346C57.6552 67.0358 57.8279 56.1816 50.1666 49.568C47.2551 47.0547 44.7914 45.7721 41.6111 44.6847C38.6909 43.6861 34.8889 44.0742 34.8889 44.0742Z" fill="#254087"/>
<rect x="19" y="96.5555" width="18.3333" height="13.4444" fill="#254087"/>
</svg>
